<?xml version="1.0" encoding="utf-8"?>
<!-- Generator: Adobe Illustrator 19.1.0, SVG Export Plug-In . SVG Version: 6.00 Build 0)  -->
<svg version="1.1" id="Layer_1" xmlns="http://www.w3.org/2000/svg" xmlns:xlink="http://www.w3.org/1999/xlink" x="0px" y="0px"
	 viewBox="295 239 1201 316" style="enable-background:new 295 239 1201 316;" xml:space="preserve">
<style type="text/css">
	.st0{fill:#FF375C;}
</style>
<path class="st0" d="z"/>
<polygon class="st0" points="295,555 481,239 589,239 589,555 492,555 492,407 407,555 "/>
<polygon class="st0" points="621,239 716,239 716,389 805,239 915,239 915,389 1002,239 1113,239 927,555 817,555 819,405 730,555 
	621,555 "/>
<polygon class="st0" points="960,555 1145,239 1255,239 1255,555 1158,555 1158,406 1069,555 "/>
<polygon class="st0" points="1283,555 1283,239 1381,239 1381,458 1496,458 1496,555 "/>
</svg>
